<svg width="551" height="633" viewBox="0 0 551 633" fill="none" xmlns="http://www.w3.org/2000/svg">
<path opacity="0.2" d="M162.883 487.915C156.012 496.028 144.878 496.028 137.957 487.915L71.5551 409.552L5.15317 331.19C-1.71772 323.076 -1.71772 309.924 5.15317 301.81L71.5551 223.448L137.957 145.085C144.828 136.972 155.962 136.972 162.883 145.085L216.847 208.733C223.718 216.846 223.718 229.999 216.847 238.112L162.883 301.81C156.012 309.924 156.012 323.076 162.883 331.19L216.847 394.837C223.718 402.951 223.718 416.104 216.847 424.217L162.883 487.915Z" fill="white" fill-opacity="0.6"/>
<rect x="205.707" y="316.882" width="102.238" height="102.238" rx="27.5" transform="rotate(-45 205.707 316.882)" fill="#00F0FF" fill-opacity="0.2" stroke="#00F0FF"/>
<rect x="288.707" y="398" width="102.238" height="102.238" rx="27.5" transform="rotate(-45 288.707 398)" fill="#0075CC" fill-opacity="0.2" stroke="#0075CC"/>
<rect opacity="0.6" x="372.707" y="479" width="102.238" height="102.238" rx="27.5" transform="rotate(-45 372.707 479)" fill="#0075CC" fill-opacity="0.2" stroke="#0075CC"/>
<rect opacity="0.5" x="461.707" y="560" width="102.238" height="102.238" rx="27.5" transform="rotate(-45 461.707 560)" fill="#0075CC" fill-opacity="0.2" stroke="#0075CC"/>
<rect opacity="0.5" x="461.707" y="398" width="102.238" height="102.238" rx="27.5" transform="rotate(-45 461.707 398)" fill="#0075CC" fill-opacity="0.2" stroke="#0075CC"/>
<rect x="288.707" y="236" width="102.238" height="102.238" rx="27.5" transform="rotate(-45 288.707 236)" fill="#C2AAFF" fill-opacity="0.2" stroke="#C2AAFF"/>
<rect opacity="0.4" x="371.707" y="317" width="102.238" height="102.238" rx="27.5" transform="rotate(-45 371.707 317)" fill="#00F0FF" fill-opacity="0.2" stroke="#00F0FF"/>
<rect opacity="0.6" x="372.707" y="155" width="102.238" height="102.238" rx="27.5" transform="rotate(-45 372.707 155)" fill="#0075CC" fill-opacity="0.2" stroke="#0075CC"/>
<rect opacity="0.5" x="456.707" y="73.0001" width="102.238" height="102.238" rx="27.5" transform="rotate(-45 456.707 73.0001)" fill="#0075CC" fill-opacity="0.2" stroke="#0075CC"/>
<rect opacity="0.5" x="455.707" y="236" width="102.238" height="102.238" rx="27.5" transform="rotate(-45 455.707 236)" fill="#0075CC" fill-opacity="0.2" stroke="#0075CC"/>
<path opacity="0.2" d="M191.513 487.915C183.428 496.028 170.322 496.028 162.237 487.915L84.1502 409.552L6.06364 331.19C-2.02121 323.076 -2.02121 309.924 6.06364 301.81L84.1502 223.448L162.237 145.085C170.322 136.972 183.428 136.972 191.513 145.085L254.936 208.733C263.021 216.846 263.021 229.999 254.936 238.112L191.513 301.81C183.428 309.924 183.428 323.076 191.513 331.19L254.936 394.837C263.021 402.951 263.021 416.104 254.936 424.217L191.513 487.915Z" fill="white"/>
</svg>
