<svg xmlns="http://www.w3.org/2000/svg" version="1.1" xmlns:xlink="http://www.w3.org/1999/xlink" width="500"
  height="500"><svg xmlns="http://www.w3.org/2000/svg" version="1.1" xmlns:xlink="http://www.w3.org/1999/xlink"
    width="500" height="500"><svg width="500" height="500" viewBox="0 0 500 500" fill="none"
      xmlns="http://www.w3.org/2000/svg">
      <rect width="500" height="500" fill="#190645"></rect>
      <path
        d="M310.675 144C347.442 144 377.247 173.805 377.247 210.572V275.665C377.247 312.432 347.442 342.237 310.675 342.237H230.466L181.574 383.688C176.768 387.763 169.395 384.347 169.395 378.047V342.038C135.048 339.396 108 310.689 108 275.665V210.572C108 173.805 137.805 144 174.572 144H310.675ZM184 231C175.716 231 169 237.716 169 246C169 254.284 175.716 261 184 261C192.284 261 199 254.284 199 246C199 237.716 192.284 231 184 231ZM246 231C237.716 231 231 237.716 231 246C231 254.284 237.716 261 246 261C254.284 261 261 254.284 261 246C261 237.716 254.284 231 246 231ZM308 231C299.716 231 293 237.716 293 246C293 254.284 299.716 261 308 261C316.284 261 323 254.284 323 246C323 237.716 316.284 231 308 231Z"
        fill="#F3451A"></path>
      <path
        d="M317.675 130C354.442 130 384.247 159.805 384.247 196.572V261.665C384.247 298.432 354.442 328.237 317.675 328.237H237.466L188.574 369.688C183.768 373.763 176.395 370.347 176.395 364.047V328.038C142.048 325.396 115 296.689 115 261.665V196.572C115 159.805 144.805 130 181.572 130H317.675ZM191 217C182.716 217 176 223.716 176 232C176 240.284 182.716 247 191 247C199.284 247 206 240.284 206 232C206 223.716 199.284 217 191 217ZM253 217C244.716 217 238 223.716 238 232C238 240.284 244.716 247 253 247C261.284 247 268 240.284 268 232C268 223.716 261.284 217 253 217ZM315 217C306.716 217 300 223.716 300 232C300 240.284 306.716 247 315 247C323.284 247 330 240.284 330 232C330 223.716 323.284 217 315 217Z"
        fill="#381AF3"></path>
      <path
        d="M324.675 114C361.442 114 391.247 143.805 391.247 180.572V245.665C391.247 282.432 361.442 312.237 324.675 312.237H244.466L195.574 353.688C190.768 357.763 183.395 354.347 183.395 348.047V312.038C149.048 309.396 122 280.689 122 245.665V180.572C122 143.805 151.805 114 188.572 114H324.675ZM198 201C189.716 201 183 207.716 183 216C183 224.284 189.716 231 198 231C206.284 231 213 224.284 213 216C213 207.716 206.284 201 198 201ZM260 201C251.716 201 245 207.716 245 216C245 224.284 251.716 231 260 231C268.284 231 275 224.284 275 216C275 207.716 268.284 201 260 201ZM322 201C313.716 201 307 207.716 307 216C307 224.284 313.716 231 322 231C330.284 231 337 224.284 337 216C337 207.716 330.284 201 322 201Z"
        fill="white"></path>
    </svg></svg>
  <style>
    @media (prefers-color-scheme: light) {
      :root {
        filter: none;
      }
    }

    @media (prefers-color-scheme: dark) {
      :root {
        filter: none;
      }
    }
  </style>
</svg>