<svg width="500" height="500" viewBox="0 0 500 500" fill="none" xmlns="http://www.w3.org/2000/svg">
<path d="M198.679 244.845L172.664 318.222H150.206L124.079 244.845H144.202L157.655 289.204L161.657 303.657L165.548 289.427L179.223 244.845H198.679Z" fill="#F3451A"/>
<path d="M226.14 261.521C231.995 261.521 237.109 262.67 241.482 264.968C245.929 267.191 249.376 270.49 251.822 274.862C254.342 279.161 255.602 284.35 255.602 290.427C255.602 296.505 254.342 301.73 251.822 306.103C249.376 310.402 245.929 313.7 241.482 315.998C237.109 318.222 231.995 319.333 226.14 319.333C220.433 319.333 215.356 318.222 210.909 315.998C206.462 313.7 202.978 310.402 200.458 306.103C198.012 301.73 196.789 296.505 196.789 290.427C196.789 284.35 198.012 279.161 200.458 274.862C202.978 270.49 206.462 267.191 210.909 264.968C215.356 262.67 220.433 261.521 226.14 261.521ZM226.14 274.974C223.99 274.974 222.138 275.492 220.581 276.53C219.025 277.568 217.839 279.235 217.023 281.533C216.208 283.831 215.8 286.796 215.8 290.427C215.8 294.059 216.208 297.024 217.023 299.322C217.839 301.545 219.025 303.213 220.581 304.324C222.138 305.362 223.99 305.881 226.14 305.881C228.363 305.881 230.253 305.362 231.81 304.324C233.366 303.213 234.552 301.545 235.368 299.322C236.183 297.024 236.591 294.059 236.591 290.427C236.591 286.796 236.183 283.831 235.368 281.533C234.552 279.235 233.366 277.568 231.81 276.53C230.253 275.492 228.363 274.974 226.14 274.974Z" fill="#F3451A"/>
<path d="M289.144 244.956V298.432C289.144 301.1 289.774 303.027 291.034 304.213C292.369 305.325 294.184 305.881 296.482 305.881C298.261 305.881 299.78 305.696 301.04 305.325C302.375 304.88 303.56 304.25 304.598 303.435L306.599 315.109C304.746 316.443 302.412 317.48 299.595 318.222C296.779 318.963 293.888 319.333 290.923 319.333C286.699 319.333 283.03 318.74 279.917 317.555C276.878 316.369 274.506 314.479 272.801 311.885C271.171 309.29 270.318 305.844 270.244 301.545V250.181L289.144 244.956ZM305.71 262.633V276.085H260.683V262.633H305.71Z" fill="#F3451A"/>
<path d="M341.567 319.333C335.415 319.333 330.079 318.185 325.558 315.887C321.111 313.589 317.664 310.291 315.218 305.992C312.772 301.693 311.549 296.505 311.549 290.427C311.549 284.35 312.772 279.161 315.218 274.862C317.664 270.564 321.073 267.265 325.446 264.968C329.894 262.67 334.971 261.521 340.678 261.521C346.533 261.521 351.499 262.67 355.576 264.968C359.726 267.191 362.876 270.304 365.026 274.307C367.175 278.235 368.25 282.756 368.25 287.87C368.25 289.204 368.213 290.538 368.139 291.873C368.064 293.207 367.953 294.319 367.805 295.208H323.779V285.091H359.467L350.461 288.537C350.461 284.09 349.646 280.681 348.015 278.309C346.459 275.937 344.013 274.751 340.678 274.751C338.306 274.751 336.268 275.307 334.563 276.419C332.932 277.531 331.672 279.273 330.783 281.644C329.968 284.016 329.56 287.055 329.56 290.761C329.56 294.393 330.042 297.357 331.005 299.655C331.969 301.879 333.34 303.509 335.119 304.547C336.898 305.51 339.047 305.992 341.567 305.992C344.384 305.992 346.607 305.436 348.238 304.324C349.943 303.213 351.203 301.656 352.018 299.655L367.138 304.658C366.1 307.845 364.284 310.55 361.69 312.774C359.17 314.923 356.131 316.554 352.574 317.666C349.09 318.778 345.421 319.333 341.567 319.333Z" fill="#F3451A"/>
<path d="M202.57 240.62L176.554 313.997H154.096L127.97 240.62H148.093L161.545 284.98L165.548 299.433L169.439 285.202L183.114 240.62H202.57Z" fill="#381AF3"/>
<path d="M230.031 257.296C235.886 257.296 241 258.445 245.373 260.743C249.82 262.966 253.267 266.265 255.712 270.638C258.233 274.936 259.493 280.125 259.493 286.202C259.493 292.28 258.233 297.505 255.712 301.878C253.267 306.177 249.82 309.476 245.373 311.773C241 313.997 235.886 315.109 230.031 315.109C224.323 315.109 219.246 313.997 214.799 311.773C210.352 309.476 206.869 306.177 204.349 301.878C201.903 297.505 200.68 292.28 200.68 286.202C200.68 280.125 201.903 274.936 204.349 270.638C206.869 266.265 210.352 262.966 214.799 260.743C219.246 258.445 224.323 257.296 230.031 257.296ZM230.031 270.749C227.881 270.749 226.028 271.268 224.472 272.305C222.915 273.343 221.729 275.011 220.914 277.308C220.099 279.606 219.691 282.571 219.691 286.202C219.691 289.834 220.099 292.799 220.914 295.097C221.729 297.32 222.915 298.988 224.472 300.1C226.028 301.137 227.881 301.656 230.031 301.656C232.254 301.656 234.144 301.137 235.701 300.1C237.257 298.988 238.443 297.32 239.258 295.097C240.074 292.799 240.481 289.834 240.481 286.202C240.481 282.571 240.074 279.606 239.258 277.308C238.443 275.011 237.257 273.343 235.701 272.305C234.144 271.268 232.254 270.749 230.031 270.749Z" fill="#381AF3"/>
<path d="M293.035 240.731V294.207C293.035 296.875 293.665 298.803 294.925 299.988C296.259 301.1 298.075 301.656 300.373 301.656C302.152 301.656 303.671 301.471 304.931 301.1C306.265 300.656 307.451 300.026 308.489 299.21L310.49 310.884C308.637 312.218 306.302 313.256 303.486 313.997C300.669 314.738 297.779 315.109 294.814 315.109C290.589 315.109 286.92 314.516 283.807 313.33C280.769 312.144 278.397 310.254 276.692 307.66C275.061 305.066 274.209 301.619 274.135 297.32V245.956L293.035 240.731ZM309.6 258.408V271.861H264.574V258.408H309.6Z" fill="#381AF3"/>
<path d="M345.458 315.109C339.306 315.109 333.969 313.96 329.448 311.662C325.001 309.364 321.555 306.066 319.109 301.767C316.663 297.468 315.44 292.28 315.44 286.202C315.44 280.125 316.663 274.936 319.109 270.638C321.555 266.339 324.964 263.041 329.337 260.743C333.784 258.445 338.861 257.296 344.568 257.296C350.424 257.296 355.39 258.445 359.466 260.743C363.617 262.966 366.767 266.079 368.916 270.082C371.066 274.01 372.14 278.531 372.14 283.645C372.14 284.98 372.103 286.314 372.029 287.648C371.955 288.982 371.844 290.094 371.696 290.983H327.669V280.866H363.357L354.352 284.312C354.352 279.865 353.537 276.456 351.906 274.084C350.35 271.712 347.904 270.526 344.568 270.526C342.197 270.526 340.158 271.082 338.454 272.194C336.823 273.306 335.563 275.048 334.674 277.419C333.858 279.791 333.451 282.83 333.451 286.536C333.451 290.168 333.932 293.133 334.896 295.43C335.859 297.654 337.231 299.284 339.01 300.322C340.788 301.286 342.938 301.767 345.458 301.767C348.274 301.767 350.498 301.211 352.128 300.1C353.833 298.988 355.093 297.431 355.908 295.43L371.029 300.433C369.991 303.62 368.175 306.326 365.581 308.549C363.061 310.699 360.022 312.329 356.464 313.441C352.981 314.553 349.312 315.109 345.458 315.109Z" fill="#381AF3"/>
<path d="M208.128 233.949L182.113 307.326H159.655L133.528 233.949H153.651L167.104 278.309L171.106 292.762L174.997 278.531L188.672 233.949H208.128Z" fill="white"/>
<path d="M235.589 250.626C241.444 250.626 246.559 251.775 250.932 254.072C255.379 256.296 258.825 259.594 261.271 263.967C263.791 268.266 265.051 273.454 265.051 279.532C265.051 285.61 263.791 290.835 261.271 295.208C258.825 299.507 255.379 302.805 250.932 305.103C246.559 307.326 241.444 308.438 235.589 308.438C229.882 308.438 224.805 307.326 220.358 305.103C215.911 302.805 212.427 299.507 209.907 295.208C207.461 290.835 206.238 285.61 206.238 279.532C206.238 273.454 207.461 268.266 209.907 263.967C212.427 259.594 215.911 256.296 220.358 254.072C224.805 251.775 229.882 250.626 235.589 250.626ZM235.589 264.078C233.44 264.078 231.587 264.597 230.03 265.635C228.474 266.672 227.288 268.34 226.473 270.638C225.657 272.935 225.25 275.9 225.25 279.532C225.25 283.164 225.657 286.128 226.473 288.426C227.288 290.65 228.474 292.317 230.03 293.429C231.587 294.467 233.44 294.986 235.589 294.986C237.813 294.986 239.703 294.467 241.259 293.429C242.816 292.317 244.002 290.65 244.817 288.426C245.632 286.128 246.04 283.164 246.04 279.532C246.04 275.9 245.632 272.935 244.817 270.638C244.002 268.34 242.816 266.672 241.259 265.635C239.703 264.597 237.813 264.078 235.589 264.078Z" fill="white"/>
<path d="M298.594 234.06V287.537C298.594 290.205 299.224 292.132 300.484 293.318C301.818 294.43 303.634 294.986 305.931 294.986C307.71 294.986 309.23 294.8 310.49 294.43C311.824 293.985 313.01 293.355 314.047 292.54L316.049 304.213C314.196 305.547 311.861 306.585 309.044 307.326C306.228 308.067 303.337 308.438 300.372 308.438C296.148 308.438 292.479 307.845 289.366 306.659C286.327 305.473 283.955 303.583 282.251 300.989C280.62 298.395 279.768 294.949 279.694 290.65V239.286L298.594 234.06ZM315.159 251.738V265.19H270.132V251.738H315.159Z" fill="white"/>
<path d="M351.016 308.438C344.865 308.438 339.528 307.289 335.007 304.992C330.56 302.694 327.113 299.396 324.667 295.097C322.221 290.798 320.998 285.61 320.998 279.532C320.998 273.454 322.221 268.266 324.667 263.967C327.113 259.668 330.523 256.37 334.896 254.072C339.343 251.775 344.42 250.626 350.127 250.626C355.982 250.626 360.948 251.775 365.025 254.072C369.175 256.296 372.325 259.409 374.475 263.411C376.624 267.339 377.699 271.861 377.699 276.975C377.699 278.309 377.662 279.643 377.588 280.977C377.514 282.311 377.402 283.423 377.254 284.313H333.228V274.195H368.916L359.911 277.642C359.911 273.195 359.095 269.785 357.465 267.414C355.908 265.042 353.462 263.856 350.127 263.856C347.755 263.856 345.717 264.412 344.012 265.524C342.382 266.635 341.122 268.377 340.232 270.749C339.417 273.121 339.009 276.16 339.009 279.865C339.009 283.497 339.491 286.462 340.455 288.76C341.418 290.983 342.789 292.614 344.568 293.651C346.347 294.615 348.496 295.097 351.016 295.097C353.833 295.097 356.056 294.541 357.687 293.429C359.392 292.317 360.652 290.761 361.467 288.76L376.587 293.763C375.55 296.95 373.734 299.655 371.139 301.879C368.619 304.028 365.581 305.659 362.023 306.77C358.539 307.882 354.871 308.438 351.016 308.438Z" fill="white"/>
<path d="M167.153 177.211C165.597 181.362 163.373 184.956 160.483 187.995C157.592 190.96 154.183 193.221 150.255 194.777C146.4 196.334 142.176 197.112 137.58 197.112C130.613 197.112 124.573 195.592 119.458 192.554C114.418 189.441 110.49 185.068 107.674 179.435C104.931 173.802 103.56 167.094 103.56 159.311C103.56 151.529 104.931 144.821 107.674 139.188C110.49 133.555 114.418 129.219 119.458 126.181C124.573 123.068 130.539 121.511 137.358 121.511C142.102 121.511 146.326 122.178 150.032 123.512C153.738 124.772 156.888 126.699 159.482 129.294C162.151 131.814 164.263 134.927 165.819 138.632L157.036 142.746C155.406 138.521 153.034 135.334 149.921 133.185C146.882 130.961 142.917 129.849 138.025 129.849C133.059 129.849 128.686 131.035 124.906 133.407C121.126 135.705 118.161 139.04 116.012 143.413C113.937 147.786 112.899 153.086 112.899 159.311C112.899 165.463 113.9 170.763 115.901 175.21C117.902 179.583 120.755 182.955 124.461 185.327C128.167 187.625 132.54 188.773 137.58 188.773C142.472 188.773 146.734 187.551 150.366 185.105C153.998 182.585 156.629 178.842 158.259 173.876L167.153 177.211ZM182.557 196V114.841H191.451V148.75C193.378 145.414 195.935 143.005 199.122 141.523C202.309 140.041 205.793 139.3 209.573 139.3C213.575 139.3 217.207 140.078 220.468 141.634C223.729 143.117 226.324 145.414 228.251 148.527C230.252 151.64 231.252 155.606 231.252 160.423V196H222.358V163.536C222.358 157.384 221.024 153.123 218.356 150.751C215.762 148.305 212.538 147.082 208.683 147.082C206.015 147.082 203.347 147.712 200.679 148.972C198.01 150.232 195.787 152.307 194.008 155.198C192.303 158.014 191.451 161.794 191.451 166.538V196H182.557ZM283.855 160.09C283.855 155.939 282.743 152.752 280.52 150.528C278.296 148.231 275.146 147.082 271.07 147.082C267.215 147.082 263.954 147.934 261.286 149.639C258.618 151.27 256.654 153.938 255.394 157.644L248.167 153.197C249.649 149.046 252.392 145.711 256.394 143.191C260.397 140.597 265.362 139.3 271.292 139.3C275.294 139.3 278.926 140.004 282.187 141.412C285.448 142.746 288.006 144.821 289.859 147.638C291.786 150.38 292.749 153.938 292.749 158.311V185.216C292.749 187.884 294.157 189.218 296.974 189.218C298.382 189.218 299.753 189.033 301.087 188.662L300.643 195.666C299.16 196.408 297.233 196.778 294.861 196.778C292.712 196.778 290.785 196.371 289.08 195.555C287.376 194.74 286.041 193.517 285.078 191.886C284.114 190.182 283.633 188.069 283.633 185.549V184.438L285.856 184.771C284.967 187.662 283.447 190.033 281.298 191.886C279.148 193.665 276.74 194.999 274.071 195.889C271.403 196.704 268.772 197.112 266.178 197.112C262.917 197.112 259.878 196.556 257.061 195.444C254.245 194.332 251.984 192.665 250.279 190.441C248.649 188.143 247.833 185.327 247.833 181.992C247.833 177.841 249.205 174.432 251.947 171.763C254.764 169.021 258.655 167.168 263.621 166.204L285.634 161.869V169.206L267.734 172.875C264.102 173.616 261.397 174.654 259.618 175.988C257.839 177.322 256.95 179.175 256.95 181.547C256.95 183.845 257.839 185.735 259.618 187.217C261.471 188.625 264.065 189.329 267.401 189.329C269.55 189.329 271.588 189.07 273.515 188.551C275.517 187.958 277.295 187.106 278.852 185.994C280.408 184.808 281.631 183.363 282.521 181.658C283.41 179.879 283.855 177.804 283.855 175.432V160.09ZM325.31 124.624V180.658C325.31 183.4 326.088 185.438 327.645 186.772C329.201 188.106 331.203 188.773 333.648 188.773C335.798 188.773 337.651 188.403 339.207 187.662C340.764 186.921 342.172 185.92 343.432 184.66L346.545 192.109C344.84 193.665 342.802 194.888 340.43 195.778C338.133 196.667 335.464 197.112 332.426 197.112C329.609 197.112 326.978 196.63 324.532 195.666C322.086 194.629 320.122 193.035 318.64 190.886C317.231 188.662 316.49 185.772 316.416 182.214V127.07L325.31 124.624ZM345.544 140.411V148.083H305.298V140.411H345.544ZM393.821 162.313V171.541H357.132V162.313H393.821Z" fill="white"/>
<mask id="path-5-inside-1_292_962" fill="white">
<path d="M395.045 58C431.812 58 461.617 87.8055 461.617 124.572V303.321C461.617 340.088 431.812 369.894 395.045 369.894H230.68L146.773 441.032C141.967 445.106 134.594 441.69 134.594 435.39V369.894H104.572C67.8055 369.894 38 340.088 38 303.321V124.572C38 87.8055 67.8055 58 104.572 58H395.045Z"/>
</mask>
<path d="M230.68 369.894V365.894H229.212L228.093 366.843L230.68 369.894ZM146.773 441.032L149.36 444.083L149.36 444.083L146.773 441.032ZM134.594 369.894H138.594V365.894H134.594V369.894ZM395.045 58V62C429.603 62 457.617 90.0146 457.617 124.572H461.617H465.617C465.617 85.5963 434.021 54 395.045 54V58ZM461.617 124.572H457.617V303.321H461.617H465.617V124.572H461.617ZM461.617 303.321H457.617C457.617 337.879 429.603 365.894 395.045 365.894V369.894V373.894C434.021 373.894 465.617 342.297 465.617 303.321H461.617ZM395.045 369.894V365.894H230.68V369.894V373.894H395.045V369.894ZM230.68 369.894L228.093 366.843L144.187 437.981L146.773 441.032L149.36 444.083L233.266 372.945L230.68 369.894ZM146.773 441.032L144.187 437.981C141.98 439.852 138.594 438.283 138.594 435.39H134.594H130.594C130.594 445.097 141.955 450.361 149.36 444.083L146.773 441.032ZM134.594 435.39H138.594V369.894H134.594H130.594V435.39H134.594ZM134.594 369.894V365.894H104.572V369.894V373.894H134.594V369.894ZM104.572 369.894V365.894C70.0146 365.894 42 337.879 42 303.321H38H34C34 342.297 65.5963 373.894 104.572 373.894V369.894ZM38 303.321H42V124.572H38H34V303.321H38ZM38 124.572H42C42 90.0146 70.0146 62 104.572 62V58V54C65.5963 54 34 85.5963 34 124.572H38ZM104.572 58V62H395.045V58V54H104.572V58Z" fill="white" mask="url(#path-5-inside-1_292_962)"/>
</svg>
