<svg width="500" height="500" viewBox="0 0 500 500" fill="none" xmlns="http://www.w3.org/2000/svg">
<path d="M347.4 138.929C348.007 138.929 348.499 139.421 348.499 140.028V187.681C348.499 188.288 348.007 188.78 347.4 188.78H269.012C268.405 188.78 267.913 189.272 267.913 189.878V385.209C267.913 385.816 267.421 386.308 266.814 386.308H204.543C203.937 386.308 203.445 385.816 203.445 385.209V189.878C203.445 189.272 202.953 188.78 202.346 188.78H123.583C122.976 188.78 122.484 188.288 122.484 187.681V140.028C122.484 139.421 122.976 138.929 123.583 138.929H347.4Z" fill="#F3451A"/>
<path d="M358.645 127.684C359.251 127.684 359.743 128.176 359.743 128.783V176.436C359.743 177.043 359.251 177.535 358.645 177.535H280.257C279.65 177.535 279.158 178.027 279.158 178.634V373.965C279.158 374.572 278.666 375.064 278.059 375.064H215.788C215.181 375.064 214.689 374.572 214.689 373.965V178.634C214.689 178.027 214.197 177.535 213.59 177.535H134.828C134.221 177.535 133.729 177.043 133.729 176.436V128.783C133.729 128.176 134.221 127.684 134.828 127.684H358.645Z" fill="#381AF3"/>
<path d="M377.385 112.692C377.992 112.692 378.484 113.184 378.484 113.791V161.444C378.484 162.05 377.992 162.542 377.385 162.542H298.997C298.39 162.542 297.898 163.034 297.898 163.641V358.972C297.898 359.579 297.406 360.071 296.8 360.071H234.529C233.922 360.071 233.43 359.579 233.43 358.972V163.641C233.43 163.034 232.938 162.542 232.331 162.542H153.568C152.961 162.542 152.469 162.05 152.469 161.444V113.791C152.469 113.184 152.961 112.692 153.568 112.692H377.385Z" fill="white"/>
</svg>
