<?xml version="1.0" encoding="utf-8"?>
<!-- Generator: Adobe Illustrator 15.0.0, SVG Export Plug-In . SVG Version: 6.00 Build 0)  -->
<!DOCTYPE svg PUBLIC "-//W3C//DTD SVG 1.1//EN" "http://www.w3.org/Graphics/SVG/1.1/DTD/svg11.dtd">
<svg version="1.1" id="Calque_1" xmlns="http://www.w3.org/2000/svg" xmlns:xlink="http://www.w3.org/1999/xlink" x="0px" y="0px"
	 width="53.426px" height="26.683px" viewBox="0 0 53.426 26.683" enable-background="new 0 0 53.426 26.683" xml:space="preserve">
<g id="Dernières_Nouvelles_d_x27_Alsace">
	<path fill="#FFFFFF" d="M0,26.683h53.426V0H0V26.683z"/>
	<rect x="0.278" y="0.279" fill="#E34554" width="52.865" height="26.123"/>
	<path fill="#FFFFFF" d="M15.354,5.632c2.312-0.012,4.631,0.892,5.695,3.446c0.761,1.918,0.567,4.557-0.714,6.119
		c-1.362,1.814-3.28,2.368-5.251,2.429l-8.122,0.006V16.78c0.524-0.041,1.084-0.225,1.301-0.854l0.122-0.779V7.912
		C8.332,7.437,8.219,6.849,7.755,6.625C7.521,6.462,7.221,6.453,6.942,6.432c0,0.011,0-0.799-0.005-0.799H15.354z M12.529,14.608
		c0.052,0.477,0.034,0.984,0.34,1.342c0.505,0.656,1.509,0.617,2.17,0.311c1.057-0.435,1.71-1.693,1.946-2.869
		c0.376-1.988,0.095-4.098-1.046-5.569c-0.829-1.054-2.168-1.127-3.417-0.975L12.529,14.608z"/>
	<path fill="#FFFFFF" d="M40.588,14.837c-0.121-0.303-0.446-1.268-0.446-1.268l-0.102-0.006h-3.412
		c-0.194,0.566-0.61,1.522-0.759,2.315c0,0.284,0.071,0.537,0.272,0.729c0.227,0.234,0.53,0.234,0.818,0.295l-0.003,0.725h-0.268
		h-5.356l-7.229-8.178c0.004-0.007,0,0.107,0,0.149v5.133c0.007,0.732,0.156,1.583,0.8,1.927c0.289,0.143,0.621,0.184,0.96,0.193
		v0.775h-4.728c0-0.004-0.003-0.811,0-0.826c0.559,0.051,1.09-0.193,1.379-0.73c0.263-0.508,0.191-1.178,0.227-1.795v-6.36
		c-0.35-0.418-0.976-1.269-1.647-1.459V5.733h0.827h4.515l1.939,2.158l3.77,4.264h0.044c0.005-0.005,0.005-3.962,0.005-3.962
		c-0.096-0.558-0.311-1.213-0.798-1.464c-0.279-0.135-0.596-0.154-0.908-0.205V5.733h4.061c0,0.005,0.671,0,0.675,0v0.82
		C34.691,6.646,34.1,6.86,33.82,7.499c-0.113,0.406-0.183,0.821-0.167,1.296v8.837l0.105-0.172l3.849-10.449
		c0,0.003-0.429-1.27-0.438-1.278h4.335l3.787,9.758c0.312,0.73,0.882,1.451,1.657,1.41l-0.003,0.725h-5.452h-1.71l0.004-0.705
		c0.191-0.051,0.402-0.07,0.584-0.172c0.175-0.121,0.411-0.283,0.462-0.527C40.828,15.521,40.61,14.913,40.588,14.837
		 M37.082,12.296c-0.004,0.005,2.556-0.002,2.559-0.002c0,0-1.2-3.087-1.2-3.092l-0.12-0.298
		C38.32,8.903,37.078,12.301,37.082,12.296"/>
	<path fill="#FFFFFF" d="M6.972,19.017h0.644c0.503,0,0.775,0.269,0.775,1.047c0,0.707-0.191,1.094-0.759,1.094h-0.66V19.017z
		 M7.605,20.765c0.233,0,0.318-0.113,0.318-0.715c0-0.533-0.092-0.645-0.326-0.645H7.401v1.359H7.605z"/>
	<polygon fill="#FFFFFF" points="8.725,19.018 9.792,19.018 9.792,19.409 9.154,19.409 9.154,19.854 9.662,19.854 9.662,20.235 
		9.154,20.235 9.154,20.765 9.84,20.765 9.84,21.157 8.725,21.157 	"/>
	<path fill="#FFFFFF" d="M10.139,19.018h0.626c0.509,0,0.699,0.22,0.699,0.613c0,0.351-0.127,0.488-0.353,0.558
		c0.127,0.043,0.2,0.174,0.257,0.387l0.158,0.582h-0.457l-0.157-0.608c-0.054-0.216-0.103-0.263-0.255-0.263h-0.089v0.871h-0.43
		V19.018z M10.781,19.944c0.175,0,0.229-0.09,0.229-0.289c0-0.182-0.064-0.248-0.233-0.248h-0.209v0.537H10.781z"/>
	<path fill="#FFFFFF" d="M11.806,19.018h0.405l0.414,0.948c0.067,0.153,0.133,0.352,0.173,0.497h0.004
		c-0.017-0.134-0.041-0.378-0.041-0.571v-0.874h0.388v2.14h-0.432l-0.384-0.918c-0.083-0.198-0.142-0.371-0.184-0.514
		c0,0.002-0.005,0-0.005,0c0.012,0.106,0.051,0.359,0.051,0.625v0.807h-0.39V19.018z"/>
	<rect x="13.567" y="19.02" fill="#FFFFFF" width="0.439" height="2.14"/>
	<path fill="#FFFFFF" d="M14.427,19.02h1.066v0.39h-0.636v0.447h0.506v0.377h-0.506v0.531h0.685v0.395h-1.115V19.02z M14.557,18.577
		l0.191-0.357l0.558,0.444l-0.13,0.237L14.557,18.577z"/>
	<path fill="#FFFFFF" d="M15.841,19.018h0.626c0.509,0,0.699,0.22,0.699,0.613c0,0.351-0.127,0.488-0.353,0.558
		c0.127,0.043,0.199,0.174,0.257,0.387l0.158,0.582h-0.457l-0.157-0.608c-0.054-0.216-0.103-0.263-0.255-0.263h-0.089v0.871h-0.43
		V19.018z M16.482,19.944c0.176,0,0.23-0.09,0.23-0.289c0-0.182-0.064-0.248-0.231-0.248h-0.211v0.537H16.482z"/>
	<polygon fill="#FFFFFF" points="17.508,19.018 18.575,19.018 18.575,19.409 17.936,19.409 17.936,19.854 18.445,19.854 
		18.445,20.235 17.936,20.235 17.936,20.765 18.623,20.765 18.623,21.157 17.508,21.157 	"/>
	<path fill="#FFFFFF" d="M18.812,21.001l0.143-0.356c0.14,0.104,0.295,0.162,0.458,0.162c0.2,0,0.286-0.096,0.286-0.253
		c0-0.169-0.082-0.216-0.268-0.275c-0.329-0.111-0.538-0.247-0.538-0.672c0-0.436,0.258-0.629,0.629-0.629
		c0.244,0,0.392,0.052,0.54,0.148l-0.15,0.344c-0.123-0.079-0.209-0.105-0.352-0.105c-0.151,0-0.232,0.072-0.232,0.205
		c0,0.145,0.047,0.196,0.228,0.26c0.32,0.104,0.597,0.217,0.597,0.689c0,0.406-0.182,0.679-0.701,0.679
		C19.188,21.197,18.944,21.108,18.812,21.001"/>
	<path fill="#FFFFFF" d="M21.141,19.018h0.408l0.412,0.948c0.068,0.153,0.133,0.352,0.174,0.497h0.003
		c-0.015-0.134-0.042-0.378-0.042-0.571v-0.874h0.389v2.14h-0.433l-0.383-0.918c-0.084-0.198-0.141-0.371-0.182-0.514
		c0,0.002-0.007,0-0.007,0c0.014,0.106,0.051,0.359,0.051,0.625v0.807h-0.391V19.018z"/>
	<path fill="#FFFFFF" d="M22.822,20.093c0-0.779,0.269-1.115,0.793-1.115c0.521,0,0.785,0.332,0.785,1.107
		c0,0.788-0.258,1.112-0.785,1.112S22.822,20.873,22.822,20.093 M23.935,20.083c0-0.555-0.078-0.729-0.326-0.729
		c-0.245,0-0.324,0.175-0.324,0.729c0,0.56,0.079,0.743,0.324,0.743C23.856,20.826,23.935,20.643,23.935,20.083"/>
	<path fill="#FFFFFF" d="M26.323,19.018h0.461l0.243,1.052c0.035,0.154,0.057,0.248,0.081,0.423h0.003
		c0.027-0.175,0.044-0.26,0.084-0.421l0.267-1.054h0.442l-0.607,2.14H26.91L26.323,19.018z"/>
	<polygon fill="#FFFFFF" points="28.147,19.018 29.217,19.018 29.217,19.409 28.581,19.409 28.581,19.854 29.087,19.854 
		29.087,20.235 28.581,20.235 28.581,20.765 29.266,20.765 29.266,21.157 28.147,21.157 	"/>
	<polygon fill="#FFFFFF" points="29.562,19.018 29.986,19.018 29.986,20.765 30.599,20.765 30.599,21.157 29.562,21.157 	"/>
	<polygon fill="#FFFFFF" points="30.909,19.018 31.334,19.018 31.334,20.765 31.945,20.765 31.945,21.157 30.909,21.157 	"/>
	<polygon fill="#FFFFFF" points="32.259,19.018 33.326,19.018 33.326,19.409 32.687,19.409 32.687,19.854 33.196,19.854 
		33.196,20.235 32.687,20.235 32.687,20.765 33.375,20.765 33.375,21.157 32.259,21.157 	"/>
	<path fill="#FFFFFF" d="M33.562,21.001l0.143-0.356c0.139,0.104,0.294,0.162,0.458,0.162c0.201,0,0.285-0.096,0.285-0.253
		c0-0.169-0.081-0.216-0.266-0.275c-0.33-0.111-0.539-0.247-0.539-0.672c0-0.436,0.257-0.629,0.631-0.629
		c0.242,0,0.39,0.052,0.539,0.148l-0.151,0.344c-0.123-0.079-0.211-0.105-0.354-0.105c-0.149,0-0.23,0.072-0.23,0.205
		c0,0.145,0.047,0.196,0.228,0.26c0.321,0.104,0.594,0.217,0.594,0.689c0,0.406-0.179,0.679-0.698,0.679
		C33.938,21.197,33.695,21.108,33.562,21.001"/>
	<path fill="#FFFFFF" d="M35.884,19.017h0.642c0.505,0,0.777,0.269,0.777,1.047c0,0.707-0.191,1.094-0.76,1.094h-0.659V19.017z
		 M36.518,20.765c0.233,0,0.317-0.113,0.317-0.715c0-0.533-0.091-0.645-0.325-0.645h-0.196v1.359H36.518z"/>
	<path fill="#FFFFFF" d="M37.578,19.661c0.118-0.041,0.189-0.105,0.197-0.203c-0.099-0.02-0.204-0.098-0.204-0.26
		c0-0.148,0.098-0.252,0.224-0.252c0.164,0,0.279,0.131,0.279,0.341c0,0.321-0.155,0.506-0.438,0.577L37.578,19.661z"/>
	<path fill="#FFFFFF" d="M38.577,19.018h0.442l0.54,2.142h-0.455l-0.091-0.438h-0.471l-0.096,0.438h-0.441L38.577,19.018z
		 M38.624,20.375h0.313l-0.078-0.36c-0.042-0.191-0.062-0.338-0.071-0.445h-0.004c-0.013,0.107-0.032,0.254-0.077,0.445
		L38.624,20.375z"/>
	<polygon fill="#FFFFFF" points="39.803,19.018 40.228,19.018 40.228,20.765 40.839,20.765 40.839,21.157 39.803,21.157 	"/>
	<path fill="#FFFFFF" d="M41.042,21.001l0.143-0.356c0.138,0.104,0.292,0.162,0.458,0.162c0.2,0,0.286-0.096,0.286-0.253
		c0-0.169-0.082-0.216-0.268-0.275c-0.329-0.111-0.538-0.247-0.538-0.672c0-0.436,0.258-0.629,0.633-0.629
		c0.24,0,0.388,0.052,0.536,0.148l-0.15,0.344c-0.125-0.079-0.209-0.105-0.354-0.105c-0.149,0-0.23,0.072-0.23,0.205
		c0,0.145,0.047,0.196,0.228,0.26c0.32,0.104,0.593,0.217,0.593,0.689c0,0.406-0.177,0.679-0.697,0.679
		C41.418,21.197,41.174,21.108,41.042,21.001"/>
	<path fill="#FFFFFF" d="M43.1,19.018h0.446l0.538,2.142h-0.457l-0.091-0.438h-0.467l-0.099,0.438h-0.438L43.1,19.018z
		 M43.15,20.375h0.312l-0.079-0.36c-0.042-0.191-0.06-0.338-0.069-0.445h-0.004c-0.015,0.107-0.03,0.254-0.077,0.445L43.15,20.375z"
		/>
	<path fill="#FFFFFF" d="M44.219,20.093c0-0.828,0.284-1.113,0.793-1.113c0.226,0,0.402,0.066,0.513,0.165l-0.169,0.351
		c-0.089-0.08-0.194-0.127-0.32-0.127c-0.279,0-0.343,0.137-0.343,0.695c0,0.599,0.103,0.743,0.346,0.743
		c0.143,0,0.25-0.059,0.331-0.151l0.188,0.336c-0.12,0.119-0.275,0.208-0.538,0.208C44.471,21.199,44.219,20.864,44.219,20.093"/>
	<polygon fill="#FFFFFF" points="45.829,19.018 46.896,19.018 46.896,19.409 46.258,19.409 46.258,19.854 46.767,19.854 
		46.767,20.235 46.258,20.235 46.258,20.765 46.945,20.765 46.945,21.157 45.829,21.157 	"/>
	<path fill="#FFFFFF" d="M25.396,21.207c0.461,0,0.68-0.214,0.68-0.754v-1.436h-0.433v1.491c0,0.199-0.059,0.305-0.247,0.305
		c-0.188,0-0.246-0.105-0.246-0.305v-1.491h-0.434v1.436C24.716,20.993,24.932,21.207,25.396,21.207"/>
</g>
</svg>
