<svg xmlns="http://www.w3.org/2000/svg" width="5.958em" height="1em" fill="#BD2D17" viewBox="23 32 225.184 37.795">
  <path d="M36.205 63.13v-4.475h-7.703v-19.99H23V63.13zm17.13-8.73h-6.198l1.32-4.548c.697-2.463 1.211-4.952 1.725-7.41h.146c.478 2.463.954 4.952 1.65 7.41zm8.4 8.73-7.85-24.466H46.77l-7.85 24.467h5.864l1.431-5.062h7.96l1.541 5.062zm36.131 0L94.16 38.665h-6.2l-2.75 10.93c-.514 2.201-.844 4.438-1.138 6.676h-.147a60 60 0 0 0-1.284-6.676l-2.932-10.93h-6.2L70.061 63.13h5.466l1.284-11.188c.293-2.567.44-5.172.586-7.74h.183c.367 2.237.66 4.475 1.21 6.675l3.082 12.252h4.072l2.932-12.105a63 63 0 0 0 1.21-6.823h.147c.183 2.568.293 5.173.66 7.741L92.25 63.13zm18.12-12.361c0 2.97-.514 8.657-5.429 8.657-4.841 0-5.429-5.723-5.429-8.657 0-2.898.697-8.474 5.429-8.474s5.43 5.612 5.43 8.474m5.575.036c-.004-5.978-2.495-12.838-10.969-12.838-8.656 0-10.967 6.75-10.967 12.802s2.31 13.058 10.967 13.058c8.731 0 10.968-6.932 10.968-13.018m23.184 12.321V38.665h-5.465l.074 11.377a69 69 0 0 0 .66 7.263h-.183a43 43 0 0 0-2.346-5.905l-6.9-12.735h-6.161v24.467h5.465l-.07-11.776a54 54 0 0 0-.704-7.296h.183a35.4 35.4 0 0 0 2.53 6.53l6.787 12.549h6.126zm20.064-20.064v-4.402h-17.424v4.402h5.943V63.13h5.54V43.066ZM176.84 54.4h-6.162l1.32-4.548c.697-2.463 1.21-4.952 1.725-7.41h.146c.478 2.463.954 4.952 1.65 7.41zm8.4 8.73-7.85-24.466h-7.116l-7.85 24.467h5.865l1.43-5.062h7.96l1.542 5.062zm20.32-1.394V49.045h-8.398v4.105h3.155v5.722a10.2 10.2 0 0 1-3.669.66c-5.395 0-6.272-4.988-6.272-8.51 0-3.668 1.063-8.73 6.568-8.73a20.1 20.1 0 0 1 7.077 1.54v-4.508a21.5 21.5 0 0 0-7.483-1.357c-9.024 0-11.738 6.451-11.738 12.986a13.85 13.85 0 0 0 3.228 9.684c2.274 2.421 4.988 3.155 8.583 3.155a20.16 20.16 0 0 0 8.95-2.053m23.519 1.391V38.665h-5.466l.074 11.377a69 69 0 0 0 .66 7.263h-.195a43 43 0 0 0-2.345-5.905l-6.857-12.735h-6.162v24.467h5.466l-.07-11.776a54 54 0 0 0-.704-7.296h.183a35.4 35.4 0 0 0 2.53 6.53l6.787 12.549h6.098zm19.106 0v-4.104h-10.27v-6.45h8.877v-3.788h-8.877v-6.052h9.5v-4.072h-15.003v24.467z"/>
<style xmlns="" class="darkreader darkreader--fallback">html, body, body :not(iframe) {
    background-color: var(--darkreader-background-ffffff, #181a1b) !important;
    border-color: var(--darkreader-border-404040, #776e62) !important;
    color: var(--darkreader-text-000000, #e8e6e3) !important;
}
div[style*="background-color: rgb(135, 135, 135)"] {
    background-color: #878787 !important;
}</style></svg>