<svg id="Calque_1" data-name="Calque 1" xmlns="http://www.w3.org/2000/svg" width="390.9" height="66.71"
  viewBox="0 0 390.9 66.71">
  <defs>
    <style>
      .cls-1 {
        fill: #d50000;
      }
    </style>
  </defs>
  <title>logo opinionway vecto [Converted]</title>
  <path class="cls-1"
    d="M284.74,386.09q-1.59.82-3,1.65a19.57,19.57,0,0,0-2.35,1.64,10.24,10.24,0,0,0-1.89,2.1,11.14,11.14,0,0,0-1.28,2.88h1.48a4,4,0,0,1,3.12,1,3.39,3.39,0,0,1,.95,2.33,4.68,4.68,0,0,1-1.27,3.09,5,5,0,0,1-6.89.18,5,5,0,0,1-1.11-3.39,10.49,10.49,0,0,1,1.18-5,16.23,16.23,0,0,1,3-4,19.4,19.4,0,0,1,3.66-2.81q1.91-1.12,3.36-1.9Zm12.53,0q-1.59.82-3,1.65a19.65,19.65,0,0,0-2.35,1.64,10.25,10.25,0,0,0-1.89,2.1,11.14,11.14,0,0,0-1.28,2.88h1.48a4,4,0,0,1,3.12,1,3.39,3.39,0,0,1,1,2.33,4.68,4.68,0,0,1-1.27,3.09,5,5,0,0,1-6.89.18,5,5,0,0,1-1.11-3.39,10.49,10.49,0,0,1,1.18-5,16.25,16.25,0,0,1,3-4,19.43,19.43,0,0,1,3.66-2.81q1.91-1.12,3.36-1.9Z"
    transform="translate(-272.56 -383.96)" />
  <path
    d="M327.77,414.83a24.82,24.82,0,0,1-1.35,8,21.13,21.13,0,0,1-3.92,7,19.92,19.92,0,0,1-6.27,5,18.38,18.38,0,0,1-8.5,1.88,12.08,12.08,0,0,1-9.11-3.63q-3.5-3.62-3.5-9.76a23.46,23.46,0,0,1,5.47-15.25,19.22,19.22,0,0,1,6.27-4.76,18.3,18.3,0,0,1,8.09-1.81q6,0,9.41,3.68A13.64,13.64,0,0,1,327.77,414.83Zm-6.88-1.3q0-4.82-1.71-7.23a5.67,5.67,0,0,0-4.92-2.41,9.1,9.1,0,0,0-5.3,1.73,13.53,13.53,0,0,0-4.28,5.63,26.12,26.12,0,0,0-2,6.57,38.26,38.26,0,0,0-.64,6.67q0,4.85,1.68,7.35a5.68,5.68,0,0,0,5.06,2.49,8.23,8.23,0,0,0,5.35-1.9,14.39,14.39,0,0,0,3.79-4.82,26.3,26.3,0,0,0,2.23-6.53A36.43,36.43,0,0,0,320.89,413.54Z"
    transform="translate(-272.56 -383.96)" fill="#FFFFFF" />
  <path
    d="M367.78,414.45A23.81,23.81,0,0,1,362,430.08a19.8,19.8,0,0,1-6.38,4.87,16.63,16.63,0,0,1-7.05,1.59,13.58,13.58,0,0,1-4.77-.71,14.44,14.44,0,0,1-3.32-1.76l-2,8.91q-.2.85-.32,1.6a7.89,7.89,0,0,0-.12,1.19,1.8,1.8,0,0,0,.66,1.46,4.12,4.12,0,0,0,1.51.78,10.73,10.73,0,0,0,1.89.41q1,.14,1.89.2l-.47,2H324.82l.47-2q1.08-.07,2-.17a11.12,11.12,0,0,0,1.79-.34,3.14,3.14,0,0,0,1.67-1.13,5.27,5.27,0,0,0,.9-2l7-31.16q.27-1.29.51-2.59a12.92,12.92,0,0,0,.24-2.25,3.9,3.9,0,0,0-.59-2.54,3.56,3.56,0,0,0-2.55-.64,8.51,8.51,0,0,0-1.89.27l-1.79.43.51-2.18a40,40,0,0,1,4.64-1.78,12.41,12.41,0,0,1,3.52-.63,4.9,4.9,0,0,1,3.59,1.21,5.69,5.69,0,0,1,1.52,3.35h.27a23.23,23.23,0,0,1,4.94-3.52,11.15,11.15,0,0,1,5.24-1.39,9.79,9.79,0,0,1,8,3.5Q367.78,408.52,367.78,414.45Zm-10.49,13.92A22.92,22.92,0,0,0,360,422a29.35,29.35,0,0,0,.94-7.51,20.58,20.58,0,0,0-.32-3.61,8.81,8.81,0,0,0-1-3,5.33,5.33,0,0,0-2-2.05,6.94,6.94,0,0,0-3.41-.73,7.82,7.82,0,0,0-3.46,1,20.72,20.72,0,0,0-4.62,3.56l-4.31,19.23a5.87,5.87,0,0,0,2.09,3.61,6.42,6.42,0,0,0,4.47,1.68,8.92,8.92,0,0,0,5-1.56A13.63,13.63,0,0,0,357.29,428.37Z"
    transform="translate(-272.56 -383.96)" fill="#FFFFFF" />
  <path
    d="M388.68,431.87l-.51,2.22a43.59,43.59,0,0,1-5,1.78,12.49,12.49,0,0,1-3.17.5,5.38,5.38,0,0,1-4-1.4,4.81,4.81,0,0,1-1.35-3.47,10.16,10.16,0,0,1,.14-1.62q.13-.84.44-2.13l3.58-14.37q.27-1.18.52-2.54a12.9,12.9,0,0,0,.25-2.3A3.64,3.64,0,0,0,379,406a3.73,3.73,0,0,0-2.56-.63,10.12,10.12,0,0,0-2,.26q-1.24.26-1.88.45l.51-2.21a33,33,0,0,1,4.75-1.79,13.22,13.22,0,0,1,3.33-.59,5.37,5.37,0,0,1,4,1.32,4.93,4.93,0,0,1,1.25,3.55,13.74,13.74,0,0,1-.14,1.65,17.5,17.5,0,0,1-.41,2.09l-3.59,14.35q-.34,1.32-.59,2.59a11,11,0,0,0-.25,2.08,3.31,3.31,0,0,0,.85,2.63,4.28,4.28,0,0,0,2.75.71,12.93,12.93,0,0,0,1.82-.18A8.65,8.65,0,0,0,388.68,431.87Zm2.47-43.07a4.91,4.91,0,0,1-1.26,3.35,4,4,0,0,1-3.13,1.43,3.94,3.94,0,0,1-3-1.36,4.46,4.46,0,0,1-1.26-3.11,4.64,4.64,0,0,1,1.26-3.23,3.93,3.93,0,0,1,3-1.38,4.16,4.16,0,0,1,3.17,1.3A4.25,4.25,0,0,1,391.15,388.8Z"
    transform="translate(-272.56 -383.96)" fill="#FFFFFF" />
  <path
    d="M429.57,431.69l-.51,2.21q-3.08,1.24-4.79,1.81a10.9,10.9,0,0,1-3.46.57,5.47,5.47,0,0,1-4.11-1.41,4.82,4.82,0,0,1-1.37-3.49,11.06,11.06,0,0,1,.14-1.65q.14-.9.45-2.13l3.36-12.7q.38-1.46.6-2.66a11.13,11.13,0,0,0,.22-1.91,5.58,5.58,0,0,0-1.07-3.61,3.86,3.86,0,0,0-3.19-1.33,9.79,9.79,0,0,0-4.59,1.39,17.12,17.12,0,0,0-4.79,4l-5.76,24.85h-6.34l5.07-21.9.49-2.35a12.82,12.82,0,0,0,.32-2.49,3.65,3.65,0,0,0-.64-2.53,3.77,3.77,0,0,0-2.58-.64,9,9,0,0,0-1.91.26q-1.16.27-1.81.44l.51-2.21a34.85,34.85,0,0,1,4.71-1.79,13.06,13.06,0,0,1,3.51-.59,4.65,4.65,0,0,1,3.85,1.46,6.6,6.6,0,0,1,1.23,4h.2a43.29,43.29,0,0,1,6.41-4.4,12.86,12.86,0,0,1,6.14-1.44,6.38,6.38,0,0,1,6.88,6.8,21.61,21.61,0,0,1-.19,2.17,22.17,22.17,0,0,1-.59,3.08l-2.85,10.86q-.31,1.08-.59,2.49a11.56,11.56,0,0,0-.29,2.18,3.27,3.27,0,0,0,.85,2.62,4.41,4.41,0,0,0,2.78.69,10.69,10.69,0,0,0,1.85-.23A11.36,11.36,0,0,0,429.57,431.69Z"
    transform="translate(-272.56 -383.96)" fill="#FFFFFF" />
  <path
    d="M450.12,431.87l-.51,2.22a43.56,43.56,0,0,1-5,1.78,12.49,12.49,0,0,1-3.17.5,5.37,5.37,0,0,1-4-1.4,4.8,4.8,0,0,1-1.35-3.47,10.21,10.21,0,0,1,.13-1.62q.13-.84.44-2.13l3.58-14.37q.27-1.18.52-2.54a12.89,12.89,0,0,0,.25-2.3,3.65,3.65,0,0,0-.63-2.52,3.74,3.74,0,0,0-2.56-.63,10.13,10.13,0,0,0-2,.26q-1.24.26-1.88.45l.51-2.21a33,33,0,0,1,4.75-1.79,13.22,13.22,0,0,1,3.33-.59,5.38,5.38,0,0,1,4,1.32,4.93,4.93,0,0,1,1.25,3.55,13.7,13.7,0,0,1-.13,1.65,17.6,17.6,0,0,1-.41,2.09l-3.59,14.35q-.34,1.32-.59,2.59a11.05,11.05,0,0,0-.25,2.08,3.31,3.31,0,0,0,.85,2.63,4.28,4.28,0,0,0,2.75.71,12.91,12.91,0,0,0,1.82-.18A8.63,8.63,0,0,0,450.12,431.87Zm2.47-43.07a4.91,4.91,0,0,1-1.26,3.35,4,4,0,0,1-3.13,1.43,3.94,3.94,0,0,1-3-1.36,4.46,4.46,0,0,1-1.26-3.11,4.64,4.64,0,0,1,1.26-3.23,3.93,3.93,0,0,1,3-1.38,4.16,4.16,0,0,1,3.17,1.3A4.25,4.25,0,0,1,452.59,388.8Z"
    transform="translate(-272.56 -383.96)" fill="#FFFFFF" />
  <path
    d="M487,414.83a24.8,24.8,0,0,1-1.35,8,21.11,21.11,0,0,1-3.92,7,19.92,19.92,0,0,1-6.27,5,18.38,18.38,0,0,1-8.5,1.88,12.08,12.08,0,0,1-9.11-3.63q-3.5-3.62-3.5-9.76a23.46,23.46,0,0,1,5.47-15.25,19.23,19.23,0,0,1,6.27-4.76,18.3,18.3,0,0,1,8.09-1.81q6,0,9.41,3.68A13.64,13.64,0,0,1,487,414.83Zm-6.88-1.3q0-4.82-1.71-7.23a5.67,5.67,0,0,0-4.92-2.41,9.11,9.11,0,0,0-5.3,1.73,13.54,13.54,0,0,0-4.28,5.63,26.14,26.14,0,0,0-2,6.57,38.26,38.26,0,0,0-.64,6.67q0,4.85,1.67,7.35a5.68,5.68,0,0,0,5.06,2.49,8.23,8.23,0,0,0,5.35-1.9,14.39,14.39,0,0,0,3.79-4.82,26.32,26.32,0,0,0,2.23-6.53A36.5,36.5,0,0,0,480.16,413.54Z"
    transform="translate(-272.56 -383.96)" fill="#FFFFFF" />
  <path
    d="M528.21,431.69l-.51,2.21q-3.08,1.24-4.79,1.81a10.91,10.91,0,0,1-3.46.57,5.47,5.47,0,0,1-4.11-1.41,4.82,4.82,0,0,1-1.37-3.49,11.13,11.13,0,0,1,.13-1.65q.14-.9.45-2.13l3.36-12.7q.38-1.46.6-2.66a11.09,11.09,0,0,0,.22-1.91,5.59,5.59,0,0,0-1.07-3.61,3.86,3.86,0,0,0-3.19-1.33,9.79,9.79,0,0,0-4.59,1.39,17.13,17.13,0,0,0-4.79,4l-5.76,24.85H493l5.07-21.9.49-2.35a12.78,12.78,0,0,0,.32-2.49,3.65,3.65,0,0,0-.64-2.53,3.77,3.77,0,0,0-2.58-.64,8.94,8.94,0,0,0-1.91.26q-1.16.27-1.81.44l.51-2.21a34.9,34.9,0,0,1,4.71-1.79,13.07,13.07,0,0,1,3.51-.59,4.65,4.65,0,0,1,3.85,1.46,6.6,6.6,0,0,1,1.23,4h.2a43.26,43.26,0,0,1,6.41-4.4,12.86,12.86,0,0,1,6.14-1.44,6.38,6.38,0,0,1,6.88,6.8,21.51,21.51,0,0,1-.19,2.17,22.17,22.17,0,0,1-.59,3.08l-2.85,10.86q-.31,1.08-.59,2.49a11.56,11.56,0,0,0-.29,2.18,3.27,3.27,0,0,0,.85,2.62,4.41,4.41,0,0,0,2.78.69,10.71,10.71,0,0,0,1.85-.23A11.36,11.36,0,0,0,528.21,431.69Z"
    transform="translate(-272.56 -383.96)" fill="#FFFFFF" />
  <path class="cls-1"
    d="M584.94,407.79a37.45,37.45,0,0,1-1.52,10.54,33.33,33.33,0,0,1-4.16,9.18,23.4,23.4,0,0,1-6.66,6.81,14.59,14.59,0,0,1-8.08,2.41,10.48,10.48,0,0,1-5.87-1.77,8.53,8.53,0,0,1-3.6-4.85l-2.25,2.2a17.6,17.6,0,0,1-2.69,2.1,19.45,19.45,0,0,1-3,1.66,9.15,9.15,0,0,1-3.5.58,9.89,9.89,0,0,1-4.24-.8,7.36,7.36,0,0,1-2.69-2.08,7.58,7.58,0,0,1-1.35-2.76,12.64,12.64,0,0,1-.41-3.23,10.87,10.87,0,0,1,.15-1.62q.15-1,.32-1.69l2.89-10.7a25.1,25.1,0,0,0,.59-2.78,14.62,14.62,0,0,0,.19-2.07,3.66,3.66,0,0,0-.63-2.52,3.74,3.74,0,0,0-2.56-.63,8.68,8.68,0,0,0-1.9.27l-1.8.44.51-2.18a39.56,39.56,0,0,1,4.66-1.8,11.76,11.76,0,0,1,3.23-.61,5.42,5.42,0,0,1,4,1.27,4.9,4.9,0,0,1,1.27,3.62,14,14,0,0,1-.13,1.66,17.66,17.66,0,0,1-.41,2.1L542.12,423q-.31,1.26-.51,2.58a14.44,14.44,0,0,0-.2,2,6.22,6.22,0,0,0,1,3.85,4,4,0,0,0,3.4,1.3,9.81,9.81,0,0,0,4.44-1.18,13.76,13.76,0,0,0,4.24-3.43l6-25.69,5.91-.41.41.51L562,423.21q-.24,1-.49,2.49a15.72,15.72,0,0,0-.25,1.85,6.19,6.19,0,0,0,.59,3,3.88,3.88,0,0,0,1.51,1.59,4.8,4.8,0,0,0,1.83.63,14.52,14.52,0,0,0,1.83.12,9.11,9.11,0,0,0,4.72-1.46,15.15,15.15,0,0,0,4.21-3.8,21.61,21.61,0,0,0,3.15-5.79,19.92,19.92,0,0,0,1.15-6.84,7.06,7.06,0,0,0-.56-3.14,10.15,10.15,0,0,0-1.25-1.92,16,16,0,0,1-1.25-1.78,5.12,5.12,0,0,1-.56-2.63,3.53,3.53,0,0,1,1.29-3,4.33,4.33,0,0,1,2.72-1,3.65,3.65,0,0,1,3.14,1.61A8,8,0,0,1,584.94,407.79Z"
    transform="translate(-272.56 -383.96)" fill="#FFFFFF" />
  <path class="cls-1"
    d="M610.75,431.24h-.24q-.75.61-1.79,1.54a16.33,16.33,0,0,1-2.44,1.77,17.54,17.54,0,0,1-2.9,1.47,9.17,9.17,0,0,1-3.41.62,9.4,9.4,0,0,1-7.77-3.52q-2.82-3.52-2.82-9.62a22.07,22.07,0,0,1,1.56-8.16,24.17,24.17,0,0,1,4.31-7.11,20.51,20.51,0,0,1,6.21-4.86,16,16,0,0,1,12-1.2,13.36,13.36,0,0,1,3.45,1.47l6.22-1.59.41.51-5,21.8q-.27,1-.56,2.55a13.22,13.22,0,0,0-.29,2.21,3.31,3.31,0,0,0,.81,2.6,4.25,4.25,0,0,0,2.71.68,10.38,10.38,0,0,0,1.8-.22,9.92,9.92,0,0,0,1.81-.48l-.5,2.23q-3,1.25-4.51,1.81a10.34,10.34,0,0,1-3.6.56,5.17,5.17,0,0,1-3.84-1.42A5.42,5.42,0,0,1,610.75,431.24Zm4.79-21.44a9.25,9.25,0,0,0-.24-2.13,4.49,4.49,0,0,0-1-1.9,4.74,4.74,0,0,0-1.88-1.36,7.75,7.75,0,0,0-3-.51,8.47,8.47,0,0,0-4.86,1.63,16.66,16.66,0,0,0-4.25,4.37,22.67,22.67,0,0,0-2.91,6.24,25,25,0,0,0-1.13,7.42,24.64,24.64,0,0,0,.24,3.66,9.22,9.22,0,0,0,.93,2.91,4.7,4.7,0,0,0,1.89,2,6.23,6.23,0,0,0,3.14.71,9,9,0,0,0,4-1.07,19.53,19.53,0,0,0,4.77-3.74Z"
    transform="translate(-272.56 -383.96)" fill="#FFFFFF" />
  <path class="cls-1"
    d="M651,430.71h-.2a34.62,34.62,0,0,1-5.91,4.09,13.45,13.45,0,0,1-6.38,1.49,7,7,0,0,1-5.13-1.87,6.61,6.61,0,0,1-1.89-4.91,16.15,16.15,0,0,1,.13-1.92q.13-1.11.64-3.31l2.61-10.54q.37-1.52.57-2.65a12.39,12.39,0,0,0,.2-2.18,2.52,2.52,0,0,0-3.15-3.14,8.48,8.48,0,0,0-1.88.27l-1.78.44.51-2.18a39.51,39.51,0,0,1,4.65-1.8,11.75,11.75,0,0,1,3.23-.61,5.69,5.69,0,0,1,4,1.22,4.8,4.8,0,0,1,1.3,3.67,13.84,13.84,0,0,1-.13,1.66,17.45,17.45,0,0,1-.4,2.11l-3.06,12.4q-.34,1.43-.57,2.67a10.83,10.83,0,0,0-.24,1.88,5.48,5.48,0,0,0,1.1,3.6,3.94,3.94,0,0,0,3.22,1.32,10.08,10.08,0,0,0,4.8-1.25,17.15,17.15,0,0,0,4.4-3.44l5.54-25.25L663,402l.41.51L657.68,429a45.29,45.29,0,0,1-3.28,9.94,22.72,22.72,0,0,1-4.67,6.66,17.51,17.51,0,0,1-6.06,3.85,21.62,21.62,0,0,1-7.41,1.18,20.54,20.54,0,0,1-4.57-.4,7.6,7.6,0,0,1-2.67-1.11,3.46,3.46,0,0,1-1.32-1.51,4.5,4.5,0,0,1-.34-1.68,4,4,0,0,1,.88-2.56,3,3,0,0,1,2.53-1.11,3.28,3.28,0,0,1,2.12.7,6.49,6.49,0,0,1,1.42,1.54,13.41,13.41,0,0,1,1.11,2l.81,1.81h.81a10.07,10.07,0,0,0,4.07-.95,11.6,11.6,0,0,0,3.93-2.94,21.9,21.9,0,0,0,3.46-5.58A37.12,37.12,0,0,0,651,430.71Z"
    transform="translate(-272.56 -383.96)" fill="#FFFFFF" />
</svg>